<svg xmlns="http://www.w3.org/2000/svg" viewBox="0 0 64 64"><rect width="64" height="64" rx="14" fill="#0f172a"/><g fill="#f59e0b"><rect x="9.5" y="21.2" width="6.5" height="3.6" rx="1.2"/><rect x="48" y="21.2" width="6.5" height="3.6" rx="1.2"/><rect x="21.2" y="9.5" width="3.6" height="6.5" rx="1.2"/><rect x="21.2" y="48" width="3.6" height="6.5" rx="1.2"/><rect x="9.5" y="30.2" width="6.5" height="3.6" rx="1.2"/><rect x="48" y="30.2" width="6.5" height="3.6" rx="1.2"/><rect x="30.2" y="9.5" width="3.6" height="6.5" rx="1.2"/><rect x="30.2" y="48" width="3.6" height="6.5" rx="1.2"/><rect x="9.5" y="39.2" width="6.5" height="3.6" rx="1.2"/><rect x="48" y="39.2" width="6.5" height="3.6" rx="1.2"/><rect x="39.2" y="9.5" width="3.6" height="6.5" rx="1.2"/><rect x="39.2" y="48" width="3.6" height="6.5" rx="1.2"/><rect x="16" y="16" width="32" height="32" rx="6"/></g><path fill="#0f172a" d="M35 19.5 23.5 34.5 30.5 34.5 28 44.5 40.5 28.5 33.5 28.5Z"/></svg>
